        <svg class="gal" viewBox="0 0 1600 1600" xmlns="http://www.w3.org/2000/svg">
  <path
    d="M0 0 C2.00739459 -0.0041748 4.01478616 -0.01010148 6.02217102 -0.01761746 C11.54930703 -0.0332126 17.07616404 -0.02386407 22.60329556 -0.01050565 C28.61225072 -0.00037155 34.62116264 -0.01339347 40.63011169 -0.02347898 C51.16521577 -0.0379403 61.700249 -0.03761354 72.23535156 -0.02729034 C83.5384265 -0.01628211 94.84145342 -0.01396653 106.14453125 -0.02223969 C106.85866403 -0.02275638 107.57279681 -0.02327307 108.30856998 -0.02380541 C111.21716076 -0.02593852 114.12575148 -0.02813335 117.03434215 -0.03040652 C144.12129261 -0.05156102 171.20821088 -0.05299992 198.29516602 -0.04181671 C199.09770696 -0.04148553 199.9002479 -0.04115435 200.72710827 -0.04081313 C201.53093283 -0.04048141 202.33475739 -0.04014969 203.16294026 -0.03980792 C227.64549596 -0.02971784 252.12803836 -0.02710839 276.6105957 -0.0318985 C278.24964599 -0.03220842 279.88869627 -0.03251704 281.52774656 -0.03282438 C288.11430326 -0.03406623 294.70085995 -0.0353409 301.28741664 -0.03666343 C319.69991175 -0.04033158 338.11240691 -0.0426139 356.52490234 -0.04380798 C357.36338467 -0.04386257 358.201867 -0.04391715 359.06575789 -0.04397339 C385.78602812 -0.04561065 412.50629372 -0.04110213 439.2265625 -0.03240967 C440.09329265 -0.03212867 440.9600228 -0.03184768 441.85301749 -0.03155816 C455.92842028 -0.0269783 470.00382296 -0.02210048 484.07922563 -0.01719747 C539.90496209 0.00222808 595.73066019 0.00132646 651.55639648 -0.01811981 C665.62467444 -0.02300452 679.6929524 -0.0278487 693.76123047 -0.03240967 C694.62744921 -0.03269146 695.49366795 -0.03297325 696.38613574 -0.03326359 C723.07838798 -0.04188747 749.77063703 -0.04554558 776.46289062 -0.04380798 C777.30075832 -0.04375365 778.13862602 -0.04369931 779.00188364 -0.04364333 C797.39387485 -0.04239345 815.78586572 -0.03985896 834.1778566 -0.03616597 C840.7585478 -0.03484939 847.33923902 -0.03359707 853.91993023 -0.03236313 C855.55705572 -0.03205357 857.1941812 -0.03173865 858.83130668 -0.03141834 C883.30777164 -0.02664265 907.78422161 -0.0307123 932.2606847 -0.04081313 C933.06322564 -0.04114431 933.86576659 -0.04147549 934.69262695 -0.04181671 C935.49368938 -0.04214744 936.2947518 -0.04247817 937.12008885 -0.04281892 C964.12841061 -0.05384773 991.13669375 -0.04980169 1018.14500999 -0.02869374 C1021.0444272 -0.02648429 1023.94384444 -0.02433748 1026.84326172 -0.02223969 C1027.91062114 -0.02145844 1027.91062114 -0.02145844 1028.99954338 -0.02066142 C1040.27283975 -0.01276775 1051.54608812 -0.01826917 1062.81938016 -0.02931571 C1073.90072205 -0.03988947 1084.98199733 -0.03585845 1096.06333309 -0.01725936 C1101.99255053 -0.00771409 1107.92158574 -0.00455309 1113.85079765 -0.01888329 C1119.24249948 -0.03178193 1124.63385705 -0.02634798 1130.02553368 -0.00616065 C1131.96602942 -0.00212497 1133.90655353 -0.00481495 1135.84702682 -0.0149844 C1156.66712375 -0.1163718 1156.66712375 -0.1163718 1165.11499023 6.58148956 C1165.7144043 7.29820831 1166.31381836 8.01492706 1166.93139648 8.75336456 C1167.85758789 9.81297394 1167.85758789 9.81297394 1168.80249023 10.89398956 C1172.81703884 17.08733476 1173.93875174 22.79361697 1173.87109464 30.00149482 C1173.87759142 31.23595798 1173.87759142 31.23595798 1173.88421944 32.49535978 C1173.89507393 35.25246369 1173.88459252 38.00906603 1173.87421322 40.76616573 C1173.87764646 42.77153028 1173.88239307 44.77689294 1173.88833418 46.78225163 C1173.90088153 52.31302955 1173.89467687 57.84365388 1173.88550051 63.37443262 C1173.8788091 69.38388584 1173.88944756 75.39331207 1173.89789635 81.40275961 C1173.91029105 91.94180752 1173.91156578 102.48081717 1173.90534592 113.01986694 C1173.89871985 124.32861318 1173.89859107 135.63733154 1173.90639305 146.94607735 C1173.90688105 147.66025322 1173.90736905 148.3744291 1173.90787183 149.11024667 C1173.90988 152.01895816 1173.91193311 154.92766962 1173.91404358 157.83638103 C1173.93544913 187.3692646 1173.93749721 216.90212756 1173.93198654 246.43501694 C1173.93123083 250.51635405 1173.93050321 254.59769116 1173.92980456 258.67902827 C1173.92959593 259.89498149 1173.92959593 259.89498149 1173.92938307 261.13549942 C1173.9264316 279.09523875 1173.92944276 297.0549756 1173.93370085 315.01471448 C1173.93428301 317.472228 1173.93485185 319.92974152 1173.93541648 322.38725505 C1173.93693141 328.97488562 1173.93845832 335.56251618 1173.94000949 342.15014674 C1173.95076734 388.14129167 1173.95546684 434.1324343 1173.94753933 480.12357998 C1173.94731687 481.42416693 1173.94731687 481.42416693 1173.94708992 482.75102837 C1173.94543089 492.41982865 1173.94368131 502.08862892 1173.94189691 511.75742918 C1173.94173588 512.63039359 1173.94157486 513.50335801 1173.94140895 514.4027759 C1173.94010111 521.48796897 1173.94010111 521.48796897 1173.93944776 524.99380196 C1173.92905496 580.83969346 1173.9368248 636.68555345 1173.96044922 692.53144073 C1173.9663925 706.60402896 1173.97228401 720.67661721 1173.97785854 734.74920559 C1173.97820231 735.61568071 1173.97854608 736.48215583 1173.97890027 737.37488778 C1173.98942556 764.0739893 1173.99502156 790.7730882 1173.99541569 817.47219181 C1173.99542847 818.31024728 1173.99544125 819.14830275 1173.99545442 820.01175384 C1173.9956827 838.40769013 1173.99467675 856.8036262 1173.99254537 875.19956236 C1173.99179058 881.78165936 1173.99111238 888.36375636 1173.99046522 894.94585336 C1173.99030253 896.58334188 1173.99013486 898.2208304 1173.9899622 899.85831892 C1173.98723957 925.96399096 1173.99580141 952.06964388 1174.00981631 978.17531181 C1174.02421459 1005.19320477 1174.02378586 1032.21106134 1174.00644159 1059.22895306 C1174.00463736 1062.12905224 1174.00289718 1065.02915146 1174.00120735 1067.92925072 C1174.00078685 1068.64099444 1174.00036635 1069.35273816 1173.99993311 1070.08604987 C1173.99363047 1081.36489813 1174.00074678 1092.64369646 1174.01341655 1103.92253769 C1174.02558636 1115.00770878 1174.02317697 1126.09281545 1174.00619624 1137.17798465 C1173.9975189 1143.10998438 1173.99525041 1149.04180068 1174.01046555 1154.97379135 C1174.02416846 1160.36686794 1174.01957179 1165.75960278 1174.00018037 1171.15265908 C1173.99643479 1173.09478052 1173.99943428 1175.03692926 1174.00989345 1176.97902616 C1174.06621692 1188.20836436 1173.79715169 1196.28755149 1167.24389648 1205.75336456 C1161.0952336 1211.90202745 1155.48683796 1214.60433721 1146.79869036 1214.63754376 C1146.03690797 1214.63538929 1145.27512558 1214.63323482 1144.49025887 1214.63101506 C1143.26309155 1214.63349123 1143.26309155 1214.63349123 1142.01113296 1214.63601742 C1139.24663818 1214.64036017 1136.4821962 1214.63753554 1133.7177 1214.63479233 C1131.7163944 1214.63644112 1129.71508911 1214.638527 1127.71378437 1214.64101243 C1122.17568191 1214.64659973 1116.63759486 1214.64590291 1111.09949048 1214.64423484 C1105.08903881 1214.6435061 1099.07859156 1214.64852113 1093.06814176 1214.65280986 C1082.52119379 1214.65951972 1071.97424919 1214.66248808 1061.4272995 1214.66294479 C1050.1072073 1214.6634468 1038.78711868 1214.66608979 1027.46702766 1214.67135239 C1026.75276559 1214.67168252 1026.03850352 1214.67201265 1025.30259715 1214.67235279 C1022.39364423 1214.67370275 1019.48469131 1214.67506542 1016.5757384 1214.6764449 C982.11675977 1214.692757 947.65778182 1214.69913456 913.19879998 1214.70389277 C896.04519983 1214.70627482 878.89160007 1214.70997804 861.73800021 1214.71392986 C806.73415352 1214.72659464 751.73030684 1214.73737893 696.72645872 1214.74077032 C694.0969932 1214.74093256 691.46752769 1214.74109812 688.83806217 1214.74126471 C683.56450079 1214.74159851 678.29093941 1214.74192899 673.01737803 1214.74225926 C666.84312917 1214.74264617 660.66888032 1214.74303577 654.49463146 1214.74343033 C652.72750183 1214.74354275 650.96037221 1214.74365417 649.19324259 1214.74376458 C592.42381062 1214.74731499 535.6543913 1214.7623972 478.88496416 1214.78570233 C438.09844414 1214.80243933 397.31192651 1214.81791702 356.52540302 1214.82243729 C355.68697201 1214.82253077 354.84854099 1214.82262426 353.98470297 1214.82272058 C335.58087644 1214.82473943 317.17704996 1214.82589563 298.77322332 1214.82624916 C292.18831474 1214.82638534 285.60340617 1214.82659434 279.01849759 1214.82684241 C277.380283 1214.82690398 275.7420684 1214.8269623 274.10385381 1214.82701736 C247.97937652 1214.82793789 221.85491242 1214.83791461 195.73043947 1214.85247485 C169.42441632 1214.86707765 143.11840936 1214.87214085 116.81238288 1214.86405531 C113.17991144 1214.86293988 109.54743998 1214.86192923 105.91496849 1214.86098099 C105.20288322 1214.86079102 104.49079796 1214.86060105 103.75713435 1214.86040533 C92.46719226 1214.85766822 81.17728005 1214.8650247 69.88734446 1214.87655436 C58.79452235 1214.88767384 47.70173444 1214.88789616 36.60890943 1214.87718417 C30.67137488 1214.87176159 24.73394461 1214.87117954 18.79641845 1214.88369289 C13.40064252 1214.8949702 8.00505645 1214.89257574 2.60928733 1214.87902582 C0.6639152 1214.87657941 -1.28147125 1214.87921913 -3.22682762 1214.88742229 C-5.86025763 1214.89780159 -8.49301313 1214.88978745 -11.12641841 1214.87711072 C-12.25833366 1214.88822346 -12.25833366 1214.88822346 -13.41311588 1214.89956071 C-21.91724519 1214.81324814 -28.28303823 1211.07565178 -34.50610352 1205.50336456 C-39.53599055 1199.14982304 -40.80696542 1193.22006387 -40.75910318 1185.25363129 C-40.76368282 1184.0230024 -40.76368282 1184.0230024 -40.76835498 1182.76751232 C-40.77617391 1180.00715569 -40.76971528 1177.24701685 -40.76337242 1174.48665905 C-40.76606473 1172.48362676 -40.76963195 1170.48059549 -40.77399689 1168.47756615 C-40.78348655 1162.94396631 -40.78044402 1157.41043203 -40.77544135 1151.87682889 C-40.77218431 1145.86776528 -40.78044923 1139.85871598 -40.7872597 1133.84965688 C-40.79758523 1123.30819151 -40.80046849 1112.76674174 -40.79834747 1102.22527313 C-40.79609992 1090.91246608 -40.79816203 1079.59967218 -40.8054924 1068.28686714 C-40.80595171 1067.57274865 -40.80641101 1066.85863015 -40.80688424 1066.12287171 C-40.80876748 1063.21444647 -40.81067885 1060.30602126 -40.81262662 1057.39759607 C-40.83292505 1027.04339494 -40.83903894 996.68920118 -40.84021084 966.33499404 C-40.84034033 963.0668256 -40.84047621 959.79865717 -40.84061766 956.53048873 C-40.84065167 955.71950705 -40.84068567 954.90852537 -40.84072071 954.07296849 C-40.8415373 936.10930218 -40.84591606 918.14563728 -40.85092935 900.18197172 C-40.85298603 892.78739554 -40.85496608 885.39281935 -40.85696185 877.99824315 C-40.85718303 877.18123041 -40.8574042 876.36421767 -40.85763208 875.52244696 C-40.87028198 828.69743557 -40.87853012 781.8724251 -40.87761497 735.04741192 C-40.87758342 733.29469559 -40.87755195 731.54197927 -40.87752056 729.78926294 C-40.87737379 721.87571267 -40.87719745 713.96216241 -40.87701279 706.04861214 C-40.87693054 702.51968394 -40.87685025 698.99075574 -40.87677016 695.46182754 C-40.87672937 693.69553458 -40.87668733 691.92924163 -40.87664404 690.16294867 C-40.87528338 634.30367219 -40.88992051 578.44442105 -40.91772461 522.58515167 C-40.92472648 508.51048382 -40.93166533 494.43581594 -40.9382534 480.36114788 C-40.93865915 479.4945488 -40.9390649 478.62794973 -40.93948294 477.73509007 C-40.95191004 451.03200828 -40.9594435 424.32892857 -40.96196938 397.625844 C-40.96204928 396.78765429 -40.96212918 395.94946459 -40.9622115 395.08587519 C-40.96391793 376.68689346 -40.96444048 358.28791186 -40.96387075 339.88893007 C-40.96367778 333.30568461 -40.96357369 326.72243914 -40.96351329 320.13919368 C-40.96349746 318.50141065 -40.96347705 316.86362762 -40.96345204 315.22584458 C-40.9630992 289.11453531 -40.97450339 263.00324771 -40.99175967 236.89194464 C-41.0090485 210.59777463 -41.01345154 184.30363467 -41.00023703 158.00946137 C-40.99841238 154.37766269 -40.99672584 150.74586395 -40.995121 147.11406517 C-40.99464074 146.04614861 -40.99464074 146.04614861 -40.99415078 144.95665798 C-40.98944109 133.67458872 -40.99816837 122.39257135 -41.01246338 111.11051185 C-41.02623271 100.02211887 -41.02543539 88.93378813 -41.0100791 77.84539281 C-41.00227378 71.9116279 -41.00088536 65.97804762 -41.01699381 60.04429533 C-41.03151123 54.64959636 -41.02772663 49.25523638 -41.00914607 43.8605527 C-41.00569423 41.91783731 -41.00899013 39.97509563 -41.01974849 38.03240696 C-41.11563495 19.47986819 -41.11563495 19.47986819 -36.50610352 12.50336456 C-35.72879883 11.27166534 -35.72879883 11.27166534 -34.93579102 10.01508331 C-25.52100056 -1.03191956 -13.38339955 -0.07013844 0 0 Z M3.49389648 44.50336456 C3.49389648 237.22336456 3.49389648 429.94336456 3.49389648 628.50336456 C5.6700389 625.60184134 7.16257291 623.37601739 8.69311523 620.20258331 C9.30123047 618.98345245 9.30123047 618.98345245 9.92163086 617.73969269 C10.75300313 616.05761391 11.57357928 614.37015031 12.38256836 612.67719269 C15.46863556 606.55818308 19.044927 602.62474041 24.49389648 598.50336456 C25.05729736 598.06903107 25.62069824 597.63469757 26.20117188 597.18720245 C41.67357076 585.67226148 59.9379095 577.55065691 78.49389648 572.50336456 C79.23881348 572.29453644 79.98373047 572.08570831 80.7512207 571.87055206 C92.82737178 568.6317965 104.81623387 568.11570526 117.24389648 568.06586456 C117.97285126 568.05960052 118.70180603 568.05333649 119.45285034 568.04688263 C165.20303635 567.79827182 203.05556792 589.36467639 234.92590781 620.83123415 C237.53421736 623.42593446 240.13034864 626.03261265 242.72491455 628.64104462 C243.907462 629.82602704 245.09024106 631.01077836 246.27322841 632.19532162 C248.82224614 634.74867701 251.36964815 637.30362933 253.91577339 639.859869 C258.06070161 644.0212572 262.20919573 648.17907945 266.358078 652.33652496 C272.38172324 658.37324522 278.4037357 664.41159018 284.42484283 670.4508419 C293.95294816 680.00726779 303.48692315 689.55782622 313.02191162 699.10738373 C316.29076136 702.38135685 319.55958572 705.65535532 322.8284111 708.92935276 C323.6451475 709.74737519 324.46188391 710.56539763 325.30336989 711.40820862 C334.58300987 720.70255741 343.8617596 729.99779461 353.13989258 739.29364777 C353.98721603 740.14258596 354.83453949 740.99152416 355.70753941 741.86618776 C369.43839128 755.62357563 383.16361638 769.38656582 396.88722995 783.1511737 C411.00546869 797.31122361 425.13142063 811.46354743 439.26406646 825.60921818 C447.96551033 834.31923122 456.6607183 843.0353752 465.34786645 851.7596469 C471.30601126 857.74216632 477.27152698 863.71727046 483.24276289 869.68672328 C486.68076366 873.12414941 490.11549959 876.56467167 493.54136467 880.0141964 C517.44546733 904.07582279 540.72340604 924.63713312 574.49389648 933.50336456 C575.58831055 933.80371613 576.68272461 934.10406769 577.81030273 934.41352081 C609.71710826 941.81369685 646.23416292 935.71133082 674.16186523 918.68305206 C680.69258491 914.41090484 687.10529286 909.98438916 693.49389648 905.50336456 C720.04188431 886.94253009 747.41767638 872.69087387 779.49389648 866.50336456 C780.59000244 866.27906769 780.59000244 866.27906769 781.70825195 866.05023956 C831.34521177 856.1929533 885.62575918 867.66128957 927.6965332 895.46259308 C941.47392155 904.85595884 953.95498722 915.71569409 966.05151367 927.15375519 C968.45576082 929.4033622 970.9465697 931.54837451 973.43920898 933.69867706 C976.16314352 936.0911823 978.82732917 938.54742398 981.49389648 941.00336456 C984.79414478 944.04228791 988.10339059 947.06492612 991.49389648 950.00336456 C995.42478898 953.41013806 999.24586221 956.93339241 1003.07202148 960.45648956 C1005.84883706 963.008916 1008.64370365 965.53319744 1011.49389648 968.00336456 C1015.42478898 971.41013806 1019.24586221 974.93339241 1023.07202148 978.45648956 C1025.84883706 981.008916 1028.64370365 983.53319744 1031.49389648 986.00336456 C1035.37206661 989.36659094 1039.14917459 992.83672127 1042.92700195 996.31147003 C1047.74974539 1000.74560084 1052.61730769 1005.12854696 1057.49389648 1009.50336456 C1059.16082296 1011.00307584 1060.82748797 1012.50307777 1062.49389648 1014.00336456 C1063.31889648 1014.74586456 1064.14389648 1015.48836456 1064.99389648 1016.25336456 C1102.49389649 1050.00336456 1102.49389649 1050.00336456 1104.99780273 1052.25727081 C1106.65092991 1053.74482657 1108.30456904 1055.2318136 1109.95874023 1056.71820831 C1110.7747168 1057.45168488 1111.59069336 1058.18516144 1112.43139648 1058.94086456 C1113.24350586 1059.67047394 1114.05561523 1060.40008331 1114.89233398 1061.15180206 C1116.77988135 1062.8579635 1118.65974672 1064.57068111 1120.53295898 1066.29242706 C1121.03706299 1066.75463654 1121.54116699 1067.21684601 1122.06054688 1067.69306183 C1123.48926935 1069.00425923 1124.91547414 1070.31819839 1126.34155273 1071.63227081 C1128.14435508 1073.61271073 1128.14435508 1073.61271073 1129.49389648 1073.50336456 C1129.49389648 733.93336456 1129.49389648 394.36336456 1129.49389648 44.50336456 C757.91389648 44.50336456 386.33389648 44.50336456 3.49389648 44.50336456 Z"
    fill="#1B254B"
    transform="translate(233.506103515625,192.49663543701172)"/>
  <path
    d="M0 0 C0.69441193 -0.00067474 1.38882385 -0.00134949 2.10427856 -0.00204468 C12.73842262 0.01437575 22.78943974 0.52954069 33.125 3.25 C33.77887695 3.42160645 34.43275391 3.59321289 35.10644531 3.77001953 C58.28910165 10.02095747 78.04338826 21.3481947 95.125 38.25 C95.91003906 38.97445312 96.69507813 39.69890625 97.50390625 40.4453125 C118.54764525 60.28132387 132.84507065 91.89327544 134.30200195 120.7565918 C134.98812622 162.10172969 125.54519383 197.81556755 96.1875 228.21875 C70.84335829 253.69154218 36.55180085 267.40605205 0.8125 267.8125 C-31.82625666 267.60555768 -66.4405482 255.81793799 -89.9375 232.4375 C-91.25668896 231.04798662 -92.57029404 229.65312128 -93.875 228.25 C-94.720625 227.425 -95.56625 226.6 -96.4375 225.75 C-97.241875 224.925 -98.04625 224.1 -98.875 223.25 C-99.44476562 222.67636719 -100.01453125 222.10273437 -100.6015625 221.51171875 C-122.30313542 198.55646931 -133.34373095 165.21132846 -133.1875 134.0625 C-133.18258545 132.88776123 -133.1776709 131.71302246 -133.17260742 130.50268555 C-132.69819652 94.97539112 -117.85526092 62.07528235 -92.74609375 37.08984375 C-67.53680962 12.73245693 -34.90294786 0.03036874 0 0 Z"
    fill="#1B264B"
    transform="translate(1065.875,399.75)"/>
</svg>